<?xml version="1.0" encoding="utf-8"?>
<!-- Generator: Adobe Illustrator 15.1.0, SVG Export Plug-In . SVG Version: 6.00 Build 0)  -->
<!DOCTYPE svg PUBLIC "-//W3C//DTD SVG 1.1//EN" "http://www.w3.org/Graphics/SVG/1.1/DTD/svg11.dtd">
<svg version="1.1" id="レイヤー_1" xmlns="http://www.w3.org/2000/svg" xmlns:xlink="http://www.w3.org/1999/xlink" x="0px"
	 y="0px" width="13.797px" height="13.508px" viewBox="0 0 13.797 13.508" enable-background="new 0 0 13.797 13.508"
	 xml:space="preserve">
<path fill="#FFFFFF" d="M11.9,5.205l-0.348-0.828c0,0,0.811-1.828,0.737-1.898l-1.072-1.047c-0.075-0.073-1.903,0.762-1.903,0.762
	L8.473,1.853c0,0-0.746-1.853-0.849-1.853H6.109C6.005,0,5.314,1.857,5.314,1.857L4.473,2.199c0,0-1.867-0.793-1.938-0.723
	L1.463,2.525C1.389,2.597,2.241,4.388,2.241,4.388L1.893,5.215c0,0-1.893,0.729-1.893,0.827v1.483c0,0.104,1.897,0.779,1.897,0.779
	L2.245,9.13c0,0-0.81,1.826-0.738,1.896l1.072,1.051c0.072,0.07,1.901-0.764,1.901-0.764l0.845,0.342c0,0,0.745,1.853,0.849,1.853
	h1.514c0.105,0,0.795-1.856,0.795-1.856l0.847-0.342c0,0,1.862,0.793,1.935,0.725l1.072-1.049c0.075-0.074-0.779-1.864-0.779-1.864
	l0.348-0.826c0,0,1.895-0.729,1.895-0.83V5.981C13.798,5.879,11.9,5.205,11.9,5.205 M9.109,6.753c0,1.192-0.991,2.165-2.211,2.165
	c-1.218,0-2.212-0.973-2.212-2.165c0-1.192,0.994-2.163,2.212-2.163C8.119,4.591,9.109,5.561,9.109,6.753"/>
</svg>
