<?xml version="1.0" encoding="utf-8"?>
<!-- Generator: Adobe Illustrator 15.1.0, SVG Export Plug-In . SVG Version: 6.00 Build 0)  -->
<!DOCTYPE svg PUBLIC "-//W3C//DTD SVG 1.1//EN" "http://www.w3.org/Graphics/SVG/1.1/DTD/svg11.dtd">
<svg version="1.1" id="レイヤー_1" xmlns="http://www.w3.org/2000/svg" xmlns:xlink="http://www.w3.org/1999/xlink" x="0px"
	 y="0px" width="11.153px" height="11.158px" viewBox="0 0 11.153 11.158" enable-background="new 0 0 11.153 11.158"
	 xml:space="preserve">
<g>
	<polygon fill="#040000" points="11.043,1.389 9.877,0.223 4.07,5.203 6.063,7.195 	"/>
	<polygon fill="#040000" points="5.793,7.436 3.83,5.473 2.05,8.051 3.214,9.217 	"/>
	<path fill="#040000" d="M1.807,10.581l1.079-1.399L2.071,8.381L0.806,9.336c0,0-0.054,1.176-0.806,1.822
		C0.001,11.158,0.887,10.479,1.807,10.581z M1.419,10.17c-0.138,0-0.249-0.111-0.249-0.249s0.111-0.249,0.249-0.249
		s0.25,0.111,0.25,0.249S1.557,10.17,1.419,10.17z"/>
	<path fill="#040000" d="M10.079,0l1.074,1.075C11.157-0.04,10.079,0,10.079,0z"/>
</g>
</svg>
