<?xml version="1.0" encoding="utf-8"?>
<!-- Generator: Adobe Illustrator 15.1.0, SVG Export Plug-In . SVG Version: 6.00 Build 0)  -->
<!DOCTYPE svg PUBLIC "-//W3C//DTD SVG 1.1//EN" "http://www.w3.org/Graphics/SVG/1.1/DTD/svg11.dtd">
<svg version="1.1" id="レイヤー_1" xmlns="http://www.w3.org/2000/svg" xmlns:xlink="http://www.w3.org/1999/xlink" x="0px"
	 y="0px" width="10.078px" height="10.59px" viewBox="0 0 10.078 10.59" enable-background="new 0 0 10.078 10.59"
	 xml:space="preserve">
<g>
	<path fill="#040000" d="M4.036,3.234l0.792,1.553l1.173-3.615L2.387,0l0.785,1.541C1.324,2.199,0,3.961,0,6.035
		c0,2.137,1.402,3.943,3.336,4.555C2.171,9.855,1.395,8.559,1.395,7.082C1.394,5.326,2.493,3.838,4.036,3.234z"/>
	<path fill="#040000" d="M6.043,7.357L5.25,5.803L4.078,9.418l3.613,1.172L6.905,9.049c1.85-0.658,3.173-2.42,3.173-4.496
		c0-2.135-1.401-3.941-3.336-4.553c1.165,0.734,1.941,2.029,1.941,3.508C8.685,5.266,7.585,6.752,6.043,7.357z"/>
</g>
</svg>
