<?xml version="1.0" encoding="utf-8"?>
<!-- Generator: Adobe Illustrator 15.1.0, SVG Export Plug-In . SVG Version: 6.00 Build 0)  -->
<!DOCTYPE svg PUBLIC "-//W3C//DTD SVG 1.1//EN" "http://www.w3.org/Graphics/SVG/1.1/DTD/svg11.dtd">
<svg version="1.1" id="レイヤー_1" xmlns="http://www.w3.org/2000/svg" xmlns:xlink="http://www.w3.org/1999/xlink" x="0px"
	 y="0px" width="11.561px" height="11.408px" viewBox="0 0 11.561 11.408" enable-background="new 0 0 11.561 11.408"
	 xml:space="preserve">
<path d="M11.561,10.379l-1.408-1.408L9.03,7.85c0.578-0.812,0.92-1.803,0.92-2.873C9.95,2.234,7.717,0,4.975,0
	C2.231,0,0,2.234,0,4.977s2.231,4.975,4.975,4.975c1.146,0,2.2-0.393,3.042-1.047l1.93,1.928c0.023,0.025,0.049,0.043,0.074,0.062
	l0.514,0.514L11.561,10.379z M4.975,8.781c-2.098,0-3.805-1.707-3.805-3.805s1.708-3.805,3.805-3.805
	c2.098,0,3.803,1.707,3.803,3.805c0,0.873-0.297,1.676-0.793,2.318C7.821,7.506,7.637,7.703,7.432,7.877
	C6.77,8.438,5.91,8.781,4.975,8.781z"/>
</svg>
